<svg width="358" height="300" xmlns="http://www.w3.org/2000/svg"><defs><linearGradient x1="20.203%" y1="97.545%" x2="82.844%" y2="-26.355%" id="a"><stop stop-color="#DD5DA3" offset="0%"/><stop stop-color="#E0725B" offset="34.86%"/><stop stop-color="#F38520" offset="59.97%"/><stop stop-color="#F5881F" offset="100%"/></linearGradient><linearGradient x1="24.939%" y1="195.143%" x2="74.671%" y2="-49.172%" id="b"><stop stop-color="#0794D2" offset="11.83%"/><stop stop-color="#4B7FC0" offset="41.78%"/><stop stop-color="#6971B4" offset="69.62%"/><stop stop-color="#766DB1" offset="83.33%"/></linearGradient><linearGradient x1="22.754%" y1="180.779%" x2="77.229%" y2="-80.752%" id="c"><stop stop-color="#0794D2" offset="11.83%"/><stop stop-color="#4B7FC0" offset="41.78%"/><stop stop-color="#6971B4" offset="69.62%"/><stop stop-color="#766DB1" offset="83.33%"/></linearGradient><linearGradient x1="27.992%" y1="140.59%" x2="72.246%" y2="46.409%" id="d"><stop stop-color="#0794D2" offset="9.68%"/><stop stop-color="#3487C7" offset="30.07%"/><stop stop-color="#5A77B9" offset="62.11%"/><stop stop-color="#6F6FB3" offset="86.43%"/><stop stop-color="#766DB1" offset="100%"/></linearGradient><linearGradient x1="16.254%" y1="39.703%" x2="67.484%" y2="-11.181%" id="e"><stop stop-color="#0794D2" offset="11.83%"/><stop stop-color="#4B7FC0" offset="41.78%"/><stop stop-color="#6971B4" offset="69.62%"/><stop stop-color="#766DB1" offset="83.33%"/></linearGradient><linearGradient x1="-14.974%" y1="93.362%" x2="75.219%" y2=".314%" id="f"><stop stop-color="#B65DA3" offset="10.75%"/><stop stop-color="#CF609A" offset="21.38%"/><stop stop-color="#E0725B" offset="42.54%"/><stop stop-color="#EC7D2C" offset="60.48%"/><stop stop-color="#F38520" offset="74.3%"/><stop stop-color="#F5881F" offset="82.32%"/></linearGradient></defs><g fill="none" fill-rule="evenodd"><path d="M94.681 163.599L8.767 249.64" stroke="#00E5FF"/><ellipse fill="#DADADA" fill-rule="nonzero" cx="160.004" cy="290.854" rx="134.433" ry="9.146"/><path d="M280.555 31.463l68.748 68.852" stroke="#00E5FF"/><path d="M101.555 25.61l26.491 26.53" stroke="#EC407A"/><g fill-rule="nonzero"><path d="M116.13 79.326S97.182 118.46 65.66 130.374c-24.22 9.147-57.057-9.657-57.057-9.657s-14.686 11.27-5.684 22.577c5.13 6.441 17.873 3.348 24.607 11.706 6.746 8.359-8.05 31.032 11.223 40.506 17.824 8.771 32.1-8.88 48.597-5.47 16.497 3.42 29.603 29.138 64.793 11.84 63.96-31.457 83.848-130.169 83.848-130.169l-119.859 7.619z" fill="url(#a)" transform="translate(25.571 67.317)"/><path d="M227.837 87.538l8.256-17.581a1.846 1.846 0 0 0-.89-2.473c-.94-.42-2.047-.024-2.468.9l-8.34 17.762c-8.16-3.024-17.162-4.44-26.55-3.828-9.363.576-18.113 3.108-25.791 7.105l-10.519-16.538a1.848 1.848 0 0 0-2.563-.576c-.879.54-1.143 1.704-.578 2.556l10.41 16.394c-17.751 10.585-29.004 29.33-27.692 49.96l120.447-7.596c-1.3-20.63-14.803-37.78-33.722-46.085" fill="#78C159"/><path d="M232.335 49.878c-3.226-7.327-8.131-13.825-14.257-19.146l-88.718 5.573c-5.413 6.03-9.448 13.093-11.731 20.768l114.706-7.195z" fill="url(#b)" transform="translate(25.571 67.317)"/><path d="M172.734 117.064a5.124 5.124 0 0 1-5.414-4.79c-.17-2.814 1.959-5.263 4.77-5.434 2.822-.183 5.255 1.986 5.438 4.789.182 2.815-1.971 5.252-4.794 5.435M227.548 114.135c-2.814.183-5.262-1.959-5.432-4.783-.17-2.8 1.973-5.258 4.786-5.44 2.802-.17 5.25 1.996 5.42 4.795.195 2.824-1.96 5.258-4.774 5.428" fill="#FFF"/><path d="M141.739 146.656l5.526 87.206c.496 7.934 7.317 13.933 15.238 13.425l9.76-.617 26.87-1.705 18.14-1.15 26.871-1.705 9.796-.629c7.909-.495 13.931-7.317 13.436-15.251l-5.527-87.206-120.11 7.632z" fill="#78C159"/><path fill="#2A5DAA" d="M141.452 146.516l119.582-7.548 3.734 59.15-119.582 7.549z"/><path fill="url(#c)" d="M241.102 151.975l-119.941 7.537-1.34-21 119.94-7.536z" transform="translate(25.571 67.317)"/><path d="M294.244 93.918c-.024-7.448-6.053-13.454-13.468-13.43-7.416.024-13.396 6.08-13.372 13.527l.193 56.457c.024 7.448 6.053 13.455 13.468 13.43 7.415-.024 13.396-6.067 13.372-13.527l-.193-56.457zM128.443 149.835c-7.136-2.135-14.649 1.953-16.781 9.085L95.546 213.12c-2.132 7.169 1.94 14.678 9.076 16.8 7.149 2.135 14.649-1.928 16.77-9.097l16.127-54.21c2.132-7.121-1.939-14.654-9.076-16.777M162.294 272.258c-2.56 7.036 1.01 14.813 7.945 17.394 6.935 2.58 14.627-1.01 17.175-8.046l1.815-4.99-25.048-9.543-1.887 5.185zM214.17 275.196c-.899 7.49 4.303 14.27 11.614 15.188 7.324.918 13.976-4.381 14.863-11.859l.455-3.77-26.488-3.292-.444 3.733z" fill="#78C159"/><path d="M266.645 226.294l-.432-6.782-119.36 7.553.433 6.806c.492 7.902 7.27 13.877 15.14 13.37l9.277-.577-7.51 20.477 25.042 9.444 11.656-31.765 15.958-1.011.673-.049-3.413 27.826 26.557 3.24 4.025-32.788 8.592-.554c7.87-.494 13.855-7.288 13.362-15.19z" fill="#2A5DAA"/><g fill="#FFF"><path d="M192.827 230.292a3.044 3.044 0 0 1-3.036-2.857l-1.804-28.68a3.04 3.04 0 0 1 2.853-3.236l28.638-1.807h.195c1.158 0 2.219.659 2.73 1.709a3.035 3.035 0 0 1-.45 3.358l-11.363 12.918 12.911 11.465a3.062 3.062 0 0 1 .866 3.272 3.035 3.035 0 0 1-2.695 2.051l-28.65 1.807h-.195z"/><path d="M219.66 196.74l-13.374 15.2 15.18 13.493-28.64 1.807-.828-13.15-.024-.379-.951-15.152 14.374-.904 14.264-.915zm.013-6.105h-.134c-.098 0-.207.012-.305.012l-14.215.903-14.374.904c-3.365.207-5.913 3.113-5.694 6.483l.951 15.153.024.378.83 13.15a6.136 6.136 0 0 0 2.048 4.2 6.082 6.082 0 0 0 4.035 1.527c.122 0 .256 0 .39-.012l28.65-1.807a6.076 6.076 0 0 0 5.377-4.103 6.111 6.111 0 0 0-1.719-6.557l-10.631-9.45 9.278-10.537c1-1.087 1.61-2.54 1.61-4.127 0-3.346-2.683-6.069-6.024-6.105-.048-.012-.073-.012-.097-.012z"/></g><path fill="url(#d)" d="M1.886 30.891l13.472-15.299 15.179 13.492z" transform="translate(190.94 196.349)"/><path fill="url(#e)" d="M.082 2.198l14.374-.904L1.057 17.741z" transform="translate(190.94 196.349)"/><path fill="url(#f)" d="M14.456 1.294L1.033 17.362l.853 13.53 13.472-15.3L28.72.391z" transform="translate(190.94 196.349)"/></g><path d="M101.51 25.61L34.339 92.878M336.037 145.61l-33.96 34.01" stroke="#B0BEC5" stroke-dasharray="3.635"/><path stroke="#FF9802" d="M200.188 0l26.302 26.341h-26.302z"/><path stroke="#EC407A" d="M329.506 221.707l-40.184 40.244v-40.244z"/><path stroke="#FF9802" d="M40.93 154.375L21.172 134.65h19.756z"/><ellipse stroke="#2196F3" cx="8.767" cy="57.805" rx="8.267" ry="8.28"/><ellipse stroke="#2196F3" cx="349.233" cy="100.244" rx="8.267" ry="8.28"/><ellipse stroke="#2196F3" cx="111.053" cy="109.024" rx="6.076" ry="6.085"/></g></svg>
